<svg xmlns="http://www.w3.org/2000/svg" width="24" height="18" fill="none"  xmlns:v="https://vecta.io/nano"><path fill="#fff" d="M7 4h10v10H7z"/><path d="M23.5 3.203a3.01 3.01 0 0 0-2.089-2.089c-1.87-.5-9.4-.5-9.4-.5s-7.51-.01-9.4.5a3.01 3.01 0 0 0-2.088 2.09A31.26 31.26 0 0 0 0 9.01a31.26 31.26 0 0 0 .523 5.785 3.01 3.01 0 0 0 .77 1.318c.366.366.82.63 1.318.77 1.87.502 9.4.502 9.4.502s7.508 0 9.4-.502a3.01 3.01 0 0 0 1.319-.771c.366-.366.63-.82.77-1.32.346-1.908.513-3.845.5-5.784a31.26 31.26 0 0 0-.5-5.808v.001zm-13.89 9.4V5.407l6.266 3.604-6.266 3.592z" fill="red"/></svg>